HIERARCHY
ROOT pelvis
{
  OFFSET 0 100 0
  CHANNELS 6 Xposition Yposition Zposition Zrotation Xrotation Yrotation
  JOINT pelvis_right_femur
  {
    OFFSET -10.78128 -3.44521 -0.5502486
    CHANNELS 3 Zrotation Xrotation Yrotation
    JOINT right_femur_tibia
    {
      OFFSET -0.8047443 -44.0398 -0.1307829
      CHANNELS 3 Zrotation Xrotation Yrotation
      JOINT right_tibia_foot
      {
        OFFSET 3.006224 -47.83518 -5
        CHANNELS 3 Zrotation Xrotation Yrotation
        End Site
        {
          OFFSET 0 -5 15
        }
      }
    }
  }
  JOINT pelvis_left_femur
  {
    OFFSET 10.78128 -3.44521 -0.5502486
    CHANNELS 3 Zrotation Xrotation Yrotation
    JOINT left_femur_tibia
    {
      OFFSET 0.8047443 -44.0398 -0.1307829
      CHANNELS 3 Zrotation Xrotation Yrotation
      JOINT left_tibia_foot
      {
        OFFSET -4.370144 -48.10324 -4.275266
        CHANNELS 3 Zrotation Xrotation Yrotation
        End Site
        {
          OFFSET 0 -5 15
        }
      }
    }
  }
  JOINT pelvis_spine1
  {
    OFFSET 0 6.468898 -3.129235
    CHANNELS 3 Zrotation Xrotation Yrotation
    JOINT spine1
    {
      OFFSET 0 23.15396 4.99043
      CHANNELS 3 Zrotation Xrotation Yrotation
      JOINT spine2
      {
        OFFSET 0 20.79997 -5.064912
        CHANNELS 3 Zrotation Xrotation Yrotation
        JOINT neck
        {
          OFFSET 0 14.38658 9.616178
          CHANNELS 3 Zrotation Xrotation Yrotation
          End Site
          {
            OFFSET 0 20 0
          }
        }
      }
      JOINT right_manubrium
      {
        OFFSET -5.722621 16.35077 3.967754
        CHANNELS 3 Zrotation Xrotation Yrotation
        JOINT right_clavicle
        {
          OFFSET -13.16364 1.694482 -4.693211
          CHANNELS 3 Zrotation Xrotation Yrotation
          JOINT right_humerus
          {
            OFFSET -28.5034 -0.3100689 -2.792744
            CHANNELS 3 Zrotation Xrotation Yrotation
            JOINT right_radius
            {
              OFFSET -25.15693 0.02248979 -1.271978
              CHANNELS 3 Zrotation Xrotation Yrotation
              End Site
              {
                OFFSET -15 0 0
              }
            }
          }
        }
      }
      JOINT left_manubrium
      {
        OFFSET 5.722621 16.35077 3.967754
        CHANNELS 3 Zrotation Xrotation Yrotation
        JOINT left_clavicle
        {
          OFFSET 13.16364 1.694482 -4.693211
          CHANNELS 3 Zrotation Xrotation Yrotation
          JOINT left_humerus
          {
            OFFSET 29.39168 -1.063119 -2.237045
            CHANNELS 3 Zrotation Xrotation Yrotation
            JOINT left_radius
            {
              OFFSET 24.59957 -0.9528479 0.9047498
              CHANNELS 3 Zrotation Xrotation Yrotation
              End Site
              {
                OFFSET 15 -0 -0
              }
            }
          }
        }
      }
    }
  }
}
MOTION
Frames: 21
Frame Time: 0.0416666666667
0 103.5113 0 1.258007 -3.109347 0.135607 1.443229 -11.00894 6.917223 -0 40.06567 -0 -6.430119 -16.65209 -4.234497 -6.454724 12.4839 -23.96848 -0 6.008434 -0 -1.06613 -19.28219 22.52943 -0.2623906 -1.396576 4.639839 0.03604827 7.187645 -7.047931 1.547602 22.18761 8.004027 5.066731 -22.99456 8.836247 5.429179 -18.72624 9.839834 88.20801 35.61899 -22.64468 -0 0 16.95859 -6.850128 8.16875 2.538693 7.138768 -20.93956 -2.35741 -100.6281 41.74041 28.97689 0 0 -25.61779 -8.28846 17.31145 27.89818
0.1512046 103.4866 1.298004 0.6253098 -2.714912 0.1317475 2.263179 -12.56898 8.112624 -0 41.57477 -0 -6.513605 -16.25519 -5.209044 -5.887013 12.37287 -24.08853 -0 6.429017 -0 -2.874278 -20.40677 22.11456 -0.2429706 -1.388819 4.552176 0.08857494 7.213577 -7.119762 1.539581 22.14663 8.035376 5.090763 -22.95047 8.836625 5.511289 -18.58334 9.867506 88.34606 35.66574 -22.89815 -0 0 16.71257 -6.782278 8.237649 2.522751 7.191965 -21.0351 -2.406833 -100.3255 41.6476 28.56128 0 0 -25.80965 -8.186267 17.34828 27.73289
0.3138172 103.2932 2.79564 0.09277406 -1.396732 0.126053 3.646084 -17.90615 8.32409 -0 38.39387 -0 -6.192233 -14.28515 -5.061785 -5.653276 12.22553 -23.20727 -0 6.136114 -0 -1.352031 -21.60824 22.18843 -0.2833296 -1.330437 4.478714 0.2061958 7.31245 -7.206861 1.479375 22.12012 8.059879 5.100169 -22.86265 8.74647 5.649392 -18.31342 9.984834 88.40333 36.06984 -23.0165 -0 0 16.06916 -7.189383 8.706154 2.796499 7.148152 -21.1951 -2.462384 -99.41202 41.0475 27.55691 0 0 -25.92709 -7.641295 17.37654 26.95937
0.4748635 102.9513 4.465343 -0.3977662 -0.4133212 0.1447057 4.785727 -21.94376 8.665173 -0 36.09494 -0 -6.066758 -12.683 -5.073678 -5.355926 12.22195 -22.6481 -0 6.018484 -0 -0.8841719 -22.73084 21.98279 -0.2779427 -1.306469 4.399346 0.2778526 7.369347 -7.286167 1.45453 22.07984 8.094082 5.120367 -22.80284 8.723792 5.749681 -18.12392 10.04055 88.53328 36.24467 -23.24466 -0 0 15.67317 -7.28278 8.926874 2.870943 7.177623 -21.3266 -2.511705 -98.8999 40.76264 26.93301 0 0 -26.11419 -7.357135 17.41304 26.55955
0.6349712 102.4033 6.453285 -0.7933634 0.6576199 0.2114049 5.811173 -26.36551 8.481282 -0 32.38634 -0 -5.954746 -10.59354 -4.671603 -5.160559 12.42471 -21.83722 -0 5.927925 -0 -0.1477357 -23.80042 21.55715 -0.3111629 -1.259712 4.267394 0.4115164 7.449192 -7.403145 1.404779 22.03465 8.115127 5.136932 -22.70184 8.634897 5.902326 -17.8348 10.14753 88.64598 36.49421 -23.48478 -0 0 15.07879 -7.532859 9.252622 3.086733 7.163465 -21.47866 -2.599549 -98.06939 40.26209 25.95088 0 0 -26.29882 -6.975542 17.4095 25.9556
0.7888682 101.6536 8.836708 -1.12587 1.704793 0.3464473 6.653836 -30.3397 8.143554 -0 28.39345 -0 -5.887284 -8.535224 -4.204891 -5.001391 12.82025 -21.01139 -0 6.031116 -0 0.2557561 -24.70186 20.85233 -0.348575 -1.214368 4.117445 0.5534565 7.524998 -7.529321 1.355632 21.98635 8.13169 5.153324 -22.59351 8.538477 6.059143 -17.53662 10.25501 88.76611 36.70497 -23.74705 -0 0 14.48874 -7.768565 9.551236 3.305225 7.149442 -21.62601 -2.697834 -97.24625 39.76359 24.95857 0 0 -26.48975 -6.636639 17.39009 25.38695
0.9316242 100.7247 11.73982 -1.387566 2.750796 0.5742933 7.248286 -33.77166 7.511201 -0 23.97265 -0 -5.847846 -6.478429 -3.640837 -4.898775 13.46156 -20.05869 -0 6.552675 -0 0.2925331 -25.28845 19.74538 -0.4233599 -1.154569 3.926445 0.7399249 7.60992 -7.679516 1.289658 21.93956 8.129562 5.161874 -22.45349 8.386395 6.243695 -17.17988 10.39638 88.854 36.93076 -23.99085 -0 0 13.79598 -8.137707 9.90402 3.640491 7.092327 -21.76662 -2.825502 -96.24344 39.11388 23.75986 0 0 -26.64373 -6.285513 17.3218 24.72829
1.058174 99.69017 15.26865 -1.618867 3.738132 0.9112409 7.618571 -36.21806 6.743425 -0 19.73467 -0 -5.840807 -4.67834 -3.142566 -4.810524 14.31955 -19.02655 -0 7.796978 -0 -0.2785055 -25.34379 18.18643 -0.5338866 -1.086087 3.711952 0.9541528 7.693687 -7.837504 1.212974 21.90196 8.10647 5.15752 -22.29578 8.192473 6.432323 -16.80374 10.55779 88.89133 37.14023 -24.17617 -0 0 13.07783 -8.632824 10.28426 4.074011 6.989366 -21.87646 -2.96984 -95.17128 38.36345 22.48608 0 0 -26.72194 -5.972385 17.20395 24.05519
1.164084 98.67456 19.51597 -1.862281 4.570354 1.35774 7.82821 -37.2727 5.945552 -0 16.23186 -0 -5.878562 -3.308498 -2.809644 -4.69055 15.30216 -17.89271 -0 10.21772 -0 -1.59723 -24.56827 16.1557 -0.6928659 -1.007217 3.484045 1.195007 7.770127 -7.990109 1.124538 21.8849 8.055794 5.129406 -22.13098 7.955997 6.607217 -16.43176 10.73944 88.83874 37.32549 -24.23605 -0 0 12.37215 -9.313017 10.70291 4.635908 6.815566 -21.92394 -3.12443 -94.06669 37.50218 21.19788 0 0 -26.65557 -5.722861 17.02181 23.38893
1.247592 97.84974 24.51578 -2.174545 5.097224 1.883372 8.033015 -36.59825 5.323475 -0 14.17356 -0 -5.991927 -2.555145 -2.735108 -4.464216 16.14858 -16.66544 -0 14.31499 -0 -3.658033 -22.65216 13.79938 -0.8995268 -0.9209388 3.273231 1.443455 7.825319 -8.108202 1.030687 21.90263 7.978617 5.065408 -21.99407 7.705152 6.730903 -16.12322 10.92683 88.65986 37.46497 -24.09052 -0 0 11.77695 -10.18429 11.14246 5.309317 6.555169 -21.86585 -3.268866 -93.0602 36.59345 20.07201 0 0 -26.36983 -5.57561 16.77468 22.79703
1.312855 97.40145 30.201 -2.576906 5.13385 2.408538 8.359435 -34.1002 5.002488 -0 14.00707 -0 -6.225672 -2.501856 -2.90585 -4.068065 16.37696 -15.33785 -0 20.52436 -0 -6.178961 -19.40916 11.44485 -1.14643 -0.8274251 3.11887 1.678162 7.848552 -8.157766 0.9378801 21.9682 7.882273 4.953528 -21.93036 7.478545 6.763079 -15.94186 11.10545 88.32349 37.55267 -23.65799 -0 0 11.38384 -11.2407 11.59249 6.067053 6.194561 -21.66271 -3.380048 -92.27524 35.705 19.28806 0 0 -25.80037 -5.535197 16.46399 22.31765
1.374676 97.46532 36.36488 -3.001896 4.536169 2.798493 8.777638 -30.04801 4.928293 -0 15.5137 -0 -6.599195 -3.120263 -3.170683 -3.504502 15.30329 -13.91772 -0 28.91669 -0 -8.611584 -15.02613 9.531318 -1.410297 -0.7258816 3.069215 1.869056 7.842323 -8.107729 0.8533329 22.08436 7.782612 4.792481 -21.9737 7.317198 6.674027 -15.93975 11.2597 87.82567 37.60784 -22.89387 -0 0 11.25418 -12.45148 12.05627 6.861593 5.744147 -21.30974 -3.435472 -91.8015 34.89655 18.98377 0 0 -24.94659 -5.551561 16.10076 21.94434
1.459451 98.05153 42.68229 -3.251978 3.30521 2.897939 9.027481 -24.9848 4.846975 -0 17.5075 -0 -7.035536 -4.301622 -3.282485 -2.90861 12.27412 -12.4445 -0 38.90778 -0 -10.32755 -10.23329 8.408528 -1.653652 -0.6164534 3.171736 1.975263 7.836257 -7.94488 0.7827604 22.23438 7.699934 4.602817 -22.09976 7.237858 6.468371 -16.12382 11.37854 87.19838 37.68957 -21.82256 -0 0 11.37758 -13.81201 12.58756 7.654551 5.25579 -20.87101 -3.422339 -91.6238 34.1606 19.15347 0 0 -23.91144 -5.513005 15.70976 21.60575
1.596528 99.01812 48.82598 -3.05594 1.650306 2.619492 8.729401 -19.41275 4.495005 -0 18.25383 -0 -7.320951 -5.919174 -3.07095 -2.533406 7.100844 -11.02152 -0 49.15326 -0 -10.91475 -6.167766 8.213057 -1.835951 -0.5043063 3.460924 1.948811 7.883595 -7.679341 0.7303627 22.38254 7.650361 4.424939 -22.20638 7.219465 6.19246 -16.44795 11.45929 86.49016 37.87517 -20.52754 -0 0 11.68387 -15.37544 13.28664 8.445246 4.81826 -20.46965 -3.342355 -91.61444 33.40838 19.63149 0 0 -22.87454 -5.291033 15.32658 21.19856
1.800281 100.1379 54.62323 -2.246681 -0.09403571 2.020142 7.666287 -13.53698 3.836567 -0 16.66309 -0 -7.192142 -7.758685 -2.598939 -2.581114 0.3769091 -9.774056 -0 57.81454 -0 -10.39833 -3.833811 8.938135 -1.940061 -0.3981429 3.936901 1.76878 8.031082 -7.337977 0.6971373 22.49052 7.631768 4.288869 -22.17203 7.215644 5.909026 -16.84248 11.51543 85.72111 38.17848 -19.08774 -0 0 12.09966 -17.20613 14.20842 9.286155 4.499524 -20.20214 -3.214016 -91.60731 32.51151 20.19523 0 0 -21.96727 -4.816091 14.95555 20.64173
2.051873 101.1978 60.10475 -0.9530444 -1.640602 1.276312 6.057183 -7.441324 3.106543 -0 13.24287 -0 -6.53038 -9.404401 -2.09355 -2.940657 -6.756508 -8.700042 -0 62.9786 -0 -9.219489 -3.493839 10.5008 -1.989003 -0.3044075 4.550838 1.475003 8.282765 -6.95115 0.6801312 22.53878 7.617775 4.184149 -21.95223 7.18621 5.654802 -17.2613 11.57504 84.86773 38.4745 -17.53006 -0 0 12.60794 -19.27095 15.25185 10.24465 4.287154 -20.0491 -3.06861 -91.51533 31.39286 20.72106 0 0 -21.16395 -4.138602 14.5315 19.93248
2.302618 102.0068 65.39407 0.3862127 -2.835053 0.5789659 4.515177 -1.469788 2.573338 -0 9.650314 -0 -5.480654 -10.45119 -1.70953 -3.077472 -13.29593 -7.57294 -0 63.00554 -0 -7.962715 -4.518942 12.62171 -2.025539 -0.223366 5.227817 1.140086 8.595096 -6.536977 0.6768377 22.53584 7.577351 4.073308 -21.60116 7.123727 5.421395 -17.70469 11.65752 83.90373 38.56551 -15.84635 -0 0 13.26153 -21.4319 16.21522 11.33286 4.108329 -19.89398 -2.935132 -91.38293 30.09975 21.24667 0 0 -20.32254 -3.421901 13.97017 19.17671
2.520531 102.3412 70.58259 1.245699 -3.606245 0.03889491 3.656832 3.794328 2.305575 -0 7.285399 -0 -4.352611 -11.02016 -1.412999 -2.331602 -18.80498 -6.116839 -0 57.08858 -0 -7.056938 -5.837532 14.77627 -2.076676 -0.1500467 5.912166 0.8089462 8.904459 -6.091971 0.6895234 22.51129 7.502106 3.929463 -21.20842 7.05622 5.174698 -18.20368 11.75474 82.8381 38.33749 -14.03115 -0 0 14.14143 -23.55464 16.96922 12.48887 3.899943 -19.62091 -2.823489 -91.33666 28.78915 21.90856 0 0 -19.31247 -2.858943 13.26407 18.55047
2.740042 101.9903 75.73425 1.32842 -3.92379 -0.3563509 3.66596 7.970868 2.214413 -0 6.443125 -0 -3.385953 -11.85136 -1.077738 -0.5067154 -23.23144 -4.339024 -0 46.19884 -0 -6.608833 -6.58524 16.48007 -2.143283 -0.07774969 6.58125 0.4864242 9.154981 -5.602311 0.722139 22.50062 7.410963 3.751051 -20.84584 7.027981 4.888748 -18.78313 11.8413 81.71268 37.83046 -12.10561 -0 0 15.28665 -25.56838 17.52687 13.61996 3.641287 -19.17943 -2.724011 -91.49783 27.64086 22.83398 0 0 -18.0913 -2.576644 12.50531 18.20425
3.045309 100.9137 80.9754 0.7631971 -3.845551 -0.7164628 4.136011 11.18454 2.222806 -0 6.680197 -0 -2.587433 -13.54036 -0.6443809 1.786677 -26.54116 -2.664332 -0 33.44046 -0 -6.414671 -6.523687 17.62164 -2.211837 -0.002015294 7.221607 0.1696519 9.316144 -5.071952 0.7733245 22.5268 7.333724 3.554573 -20.55725 7.071866 4.56737 -19.42795 11.89758 80.59384 37.19017 -10.14676 -0 0 16.63326 -27.4253 17.97442 14.64338 3.346604 -18.59724 -2.623377 -91.90783 26.76627 24.04128 0 0 -16.72527 -2.580916 11.82116 18.17382
3.511868 99.32871 86.5251 0.03590723 -3.563528 -1.164145 4.35155 13.88776 2.317268 -0 7.730521 -0 -1.789182 -15.65109 -0.1851441 3.440837 -28.61206 -1.71023 -0 22.74608 -0 -6.193133 -6.035051 18.40856 -2.267505 0.07473854 7.804458 -0.1273432 9.39848 -4.54419 0.8345127 22.58147 7.287325 3.364053 -20.34701 7.181954 4.246777 -20.06995 11.92401 79.57426 36.5551 -8.312114 -0 0 18.00904 -29.05218 18.36786 15.50663 3.055593 -17.96963 -2.523538 -92.47628 26.14996 25.3717 0 0 -15.37853 -2.76015 11.27958 18.35189
